<svg width="25" height="25" viewBox="0 0 25 25" fill="none" xmlns="http://www.w3.org/2000/svg">
<path d="M23.5107 2.55371C23.2764 1.66504 22.5781 0.966797 21.6895 0.727539C20.5225 0.415039 18.7012 0.0439453 16.5723 0L24.2188 7.65625C24.1797 5.53223 23.8184 3.7207 23.5107 2.55371V2.55371ZM0.708008 21.665C0.942383 22.5537 1.64062 23.252 2.5293 23.4912C3.69629 23.8037 5.51758 24.1748 7.64648 24.2188L0 16.5625C0.0390625 18.6865 0.400391 20.498 0.708008 21.665ZM0.205078 13.4473L10.7617 24.0234C17.2314 23.0762 22.9102 18.2275 24.0186 10.7715L13.457 0.195312C6.9873 1.14258 1.30859 5.99121 0.205078 13.4473ZM15.6982 7.41211C15.8496 7.26074 16.0986 7.26074 16.25 7.41211L16.8018 7.96387C16.9531 8.11523 16.9531 8.36426 16.8018 8.51562L15.4199 9.89746L16.8018 11.2793C16.9531 11.4307 16.9531 11.6797 16.8018 11.8311L16.25 12.3828C16.0986 12.5342 15.8496 12.5342 15.6982 12.3828L14.3164 11.001L13.2129 12.1094L14.5947 13.4912C14.7461 13.6426 14.7461 13.8916 14.5947 14.043L14.043 14.5947C13.8916 14.7461 13.6426 14.7461 13.4912 14.5947L12.1094 13.2129L11.0059 14.3164L12.3877 15.6982C12.5391 15.8496 12.5391 16.0986 12.3877 16.25L11.8359 16.8018C11.6846 16.9531 11.4355 16.9531 11.2842 16.8018L9.90234 15.4199L8.52051 16.8018C8.36914 16.9531 8.12012 16.9531 7.96875 16.8018L7.41699 16.25C7.26562 16.0986 7.26562 15.8496 7.41699 15.6982L8.79883 14.3164L7.41699 12.9395C7.26562 12.7881 7.26562 12.5391 7.41699 12.3877L7.96875 11.8359C8.12012 11.6846 8.36914 11.6846 8.52051 11.8359L9.90234 13.2178L11.0059 12.1143L9.62402 10.7324C9.47266 10.5811 9.47266 10.332 9.62402 10.1807L10.1758 9.62891C10.3271 9.47754 10.5762 9.47754 10.7275 9.62891L12.1094 11.0107L13.2129 9.90723L11.8311 8.52539C11.6797 8.37402 11.6797 8.125 11.8311 7.97363L12.3828 7.42188C12.5342 7.27051 12.7832 7.27051 12.9346 7.42188L14.3164 8.80371L15.6982 7.41211V7.41211Z" fill="white"/>
</svg>
