<svg width="141" height="34" viewBox="0 0 141 34" fill="none" xmlns="http://www.w3.org/2000/svg">
<path d="M12.2967 33C12.2967 33 8.75473 33 1.67087 33C1.31019 33 1.0505 32.8702 0.891794 32.6105C0.733093 32.3363 0.697024 32.0117 0.783589 31.6366L7.81695 3.97926H6.04238C5.59513 3.97926 5.32101 3.91434 5.22002 3.78449C5.11903 3.64022 5.12624 3.3156 5.24166 2.81064L5.52299 1.79351C5.62399 1.40397 5.74662 1.1587 5.89089 1.05771C6.03517 0.956717 6.30929 0.90622 6.71326 0.90622H21.1695C21.5879 0.90622 21.8548 0.985572 21.9702 1.14427C22.1001 1.28855 22.1145 1.5771 22.0135 2.00992L21.6889 3.13526C21.5591 3.69793 21.1912 3.97926 20.5852 3.97926H11.431L8.85573 14.0857H16.6898C16.9495 14.0857 17.1371 14.1867 17.2525 14.3886C17.3679 14.5762 17.3895 14.8142 17.3174 15.1028L16.9928 16.2065C16.8485 16.8269 16.4085 17.1371 15.6727 17.1371H8.07665L4.80884 29.9486H13.3138C13.5735 29.9486 13.761 30.0496 13.8765 30.2516C13.9919 30.4391 14.0135 30.6772 13.9414 30.9657L13.6384 32.0694C13.4941 32.6898 13.0469 33 12.2967 33ZM32.9767 19.4743C32.9767 19.4743 30.3653 19.4743 25.1426 19.4743L21.9397 32.0261C21.7666 32.6754 21.3265 33 20.6196 33H19.3427C18.9821 33 18.7224 32.8702 18.5637 32.6105C18.405 32.3363 18.3689 32.0117 18.4555 31.6366L25.4888 3.97926H23.7575C23.3103 3.97926 23.0362 3.91434 22.9352 3.78449C22.8486 3.64022 22.863 3.3156 22.9785 2.81064L23.2382 1.79351C23.3391 1.40397 23.4618 1.1587 23.606 1.05771C23.7503 0.956717 24.0244 0.90622 24.4284 0.90622C24.4284 0.90622 29.2472 0.90622 38.8847 0.90622C39.3031 0.90622 39.57 0.985572 39.6854 1.14427C39.8152 1.28855 39.8297 1.5771 39.7287 2.00992L39.4041 3.13526C39.2742 3.69793 38.9063 3.97926 38.3004 3.97926H29.1029L25.9216 16.4229H33.9938C34.2535 16.4229 34.441 16.5239 34.5565 16.7259C34.6719 16.9134 34.6935 17.1515 34.6214 17.44L34.3184 18.5437C34.1741 19.1641 33.7269 19.4743 32.9767 19.4743ZM43.7523 8.04779C43.2329 8.04779 42.7784 7.83859 42.3889 7.4202C41.9994 6.98738 41.8046 6.48242 41.8046 5.90532C41.8046 5.3138 42.0138 4.80884 42.4322 4.39044C42.8506 3.95762 43.3627 3.74121 43.9687 3.74121H44.3799C44.8704 3.74121 45.3249 3.96483 45.7433 4.41208C46.1617 4.85933 46.3709 5.3715 46.3709 5.9486C46.3709 6.51127 46.1472 7.0018 45.7 7.4202C45.2672 7.83859 44.7333 8.04779 44.0985 8.04779H43.7523ZM44.7694 11.4238L39.4024 32.0261C39.2293 32.6754 38.7893 33 38.0823 33H36.7838C35.9759 33 35.6513 32.661 35.81 31.9829L41.2203 11.3805C41.379 10.789 41.7974 10.4932 42.4755 10.4932H43.9254C44.315 10.4932 44.5746 10.5654 44.7045 10.7096C44.8343 10.8395 44.856 11.0775 44.7694 11.4238ZM59.6379 15.1677C59.6379 14.908 59.5369 14.7782 59.3349 14.7782C59.133 14.7782 58.8877 14.9152 58.5991 15.1894C58.325 15.4635 57.9427 15.9468 57.4522 16.6393C56.8606 17.5194 56.1681 18.5942 55.3746 19.8638C54.5955 21.119 53.6073 22.6772 52.4098 24.5383C50.2024 27.972 48.839 30.1578 48.3196 31.0956C47.8002 32.0189 47.5189 32.5167 47.4756 32.5888C47.4323 32.6465 47.389 32.697 47.3458 32.7403C47.3025 32.7836 47.2592 32.8197 47.2159 32.8485C47.1726 32.8774 47.1294 32.9062 47.0861 32.9351C47.0428 32.9495 46.9995 32.9639 46.9562 32.9784C46.9274 32.9928 46.8913 33 46.848 33C46.3286 33 45.8958 33 45.5496 33C44.857 33 44.6118 32.6177 44.8138 31.853L50.1808 11.6402C50.2529 11.2362 50.3467 10.9477 50.4621 10.7746C50.5919 10.587 50.7939 10.4932 51.068 10.4932H52.8859C53.261 10.4932 53.4991 10.5798 53.6 10.7529C53.701 10.9261 53.6938 11.2651 53.5784 11.7701L50.2673 22.9369L54.8769 15.3192C55.8291 13.7178 56.8246 12.5131 57.8633 11.7051C58.9165 10.8972 59.811 10.4932 60.5468 10.4932H61.4774C63.1077 10.4932 63.6127 11.7628 62.9923 14.3021L58.0148 32.3724C57.9283 32.7908 57.6902 33 57.3007 33H55.0067C54.646 33 54.5306 32.6465 54.6605 31.9396L59.3133 16.7259C59.5297 15.9468 59.6379 15.4274 59.6379 15.1677ZM75.8992 13.8476C74.4709 13.0397 73.3311 12.9243 72.4799 13.5014C71.6287 14.064 70.8135 15.1966 70.0344 16.899C68.7071 19.7845 67.7838 22.6267 67.2644 25.4256C67.0335 26.6664 66.9398 27.5537 66.9831 28.0875C67.0408 28.6069 67.2644 28.9748 67.6539 29.1912C68.0435 29.4076 68.5556 29.2561 69.1904 28.7367C69.8397 28.2173 70.5106 27.431 71.2031 26.3778C71.91 25.3246 72.5953 23.9396 73.259 22.2227C73.9371 20.4914 74.8171 17.6997 75.8992 13.8476ZM76.5701 11.3589C76.7288 10.6808 77.0678 10.3417 77.5872 10.3417L78.6043 10.2985C79.1381 10.2985 79.5133 10.4427 79.7297 10.7313C79.9461 11.0198 79.9749 11.4094 79.8162 11.8999L74.5142 29.624C75.4231 28.9603 76.332 27.9865 77.2409 26.7024C77.5583 26.2408 77.9262 26.1398 78.3446 26.3995L79.4051 27.1136C79.8667 27.4166 79.9389 27.7845 79.6215 28.2173C78.424 29.6456 77.3131 30.7493 76.2887 31.5284C75.2644 32.2931 74.0597 32.8413 72.6747 33.1731C72.4871 33.2164 72.314 33.1876 72.1553 33.0866C72.011 32.9856 71.9172 32.8557 71.8739 32.697L71.0299 30.2299C70.5683 30.8936 69.9912 31.5428 69.2987 32.1776C68.6206 32.8124 68.029 33.1298 67.5241 33.1298H67.4375C67.2067 33.1298 66.8388 32.9639 66.3338 32.6321C65.8433 32.2858 65.4537 31.9396 65.1652 31.5933C64.8911 31.2471 64.6963 31.0018 64.5809 30.8575C64.4799 30.7133 64.3645 30.5329 64.2346 30.3165C64.1048 30.0857 64.011 29.862 63.9533 29.6456C63.8956 29.4292 63.8451 29.1767 63.8018 28.8882C63.7152 28.3832 63.7297 27.6402 63.8451 26.6592C64.1625 24.2498 64.9055 21.5014 66.0741 18.4139C67.2572 15.312 68.4114 13.2344 69.5367 12.1812C70.662 11.1136 72.0759 10.5798 73.7784 10.5798C74.7739 10.5798 75.7044 10.8395 76.5701 11.3589ZM95.0285 15.1677C95.0285 14.908 94.9276 14.7782 94.7256 14.7782C94.5236 14.7782 94.2783 14.9152 93.9898 15.1894C93.7157 15.4635 93.3333 15.9468 92.8428 16.6393C92.2513 17.5194 91.5588 18.5942 90.7652 19.8638C89.9862 21.119 88.9979 22.6772 87.8004 24.5383C85.593 27.972 84.2296 30.1578 83.7102 31.0956C83.1909 32.0189 82.9095 32.5167 82.8662 32.5888C82.823 32.6465 82.7797 32.697 82.7364 32.7403C82.6931 32.7836 82.6498 32.8197 82.6065 32.8485C82.5633 32.8774 82.52 32.9062 82.4767 32.9351C82.4334 32.9495 82.3901 32.9639 82.3468 32.9784C82.318 32.9928 82.2819 33 82.2386 33C81.7193 33 81.2864 33 80.9402 33C80.2477 33 80.0024 32.6177 80.2044 31.853L85.5714 11.6402C85.6435 11.2362 85.7373 10.9477 85.8527 10.7746C85.9826 10.587 86.1845 10.4932 86.4587 10.4932H88.2765C88.6516 10.4932 88.8897 10.5798 88.9907 10.7529C89.0917 10.9261 89.0845 11.2651 88.969 11.7701L85.6579 22.9369L90.2675 15.3192C91.2197 13.7178 92.2152 12.5131 93.254 11.7051C94.3072 10.8972 95.2017 10.4932 95.9375 10.4932H96.868C98.4983 10.4932 99.0033 11.7628 98.3829 14.3021L93.4055 32.3724C93.3189 32.7908 93.0808 33 92.6913 33H90.3973C90.0367 33 89.9212 32.6465 90.0511 31.9396L94.7039 16.7259C94.9203 15.9468 95.0285 15.4274 95.0285 15.1677ZM105.425 11.8133C106.031 11.2507 106.666 10.8467 107.329 10.6014C108.008 10.3417 108.657 10.2552 109.277 10.3417C109.912 10.4139 110.532 10.6375 111.138 11.0126C111.975 11.5176 112.682 12.1019 113.259 12.7656C113.836 13.4148 113.952 13.9414 113.605 14.3454L112.848 15.1894C112.343 15.6943 111.896 15.7665 111.506 15.4058C111.463 15.3625 111.29 15.1894 110.987 14.8864C110.684 14.569 110.431 14.3165 110.229 14.1289C109.595 13.5951 109.017 13.3715 108.498 13.4581C107.445 13.6601 106.327 14.7926 105.144 16.8557C103.975 18.9188 103.124 21.0469 102.59 23.2399C102.056 25.4328 101.926 27.2795 102.201 28.78C102.258 29.1262 102.532 29.4509 103.023 29.7538C103.528 30.0424 103.903 30.165 104.148 30.1217C105.057 29.6168 106.053 28.7295 107.135 27.4599C107.38 27.2002 107.596 27.0775 107.784 27.092C107.972 27.092 108.224 27.1858 108.541 27.3733L109.212 27.8061C109.559 28.0081 109.688 28.2534 109.602 28.5419C109.357 29.3643 108.563 30.3309 107.221 31.4418C105.88 32.5383 104.913 33.1659 104.321 33.3246C103.73 33.4833 102.843 33.2597 101.66 32.6537C100.476 32.0478 99.7407 31.4563 99.4521 30.8792C98.8462 29.5086 98.673 27.8133 98.9327 25.7935C99.2069 23.7592 99.6757 21.7971 100.339 19.9071C101.003 18.0171 101.652 16.6105 102.287 15.6871C102.922 14.7493 103.456 14.0135 103.889 13.4797C104.321 12.9315 104.834 12.376 105.425 11.8133ZM115.636 23.9973C118.637 22.6988 120.678 20.9387 121.76 18.7169C122.309 17.5771 122.583 16.459 122.583 15.3625C122.583 14.266 122.265 13.7178 121.63 13.7178C120.245 13.7178 119.048 14.7998 118.038 16.9639C117.043 19.128 116.242 21.4725 115.636 23.9973ZM115.073 26.9188C114.857 28.1596 114.871 29.0325 115.116 29.5374C115.362 30.028 115.751 30.3381 116.285 30.468C117.382 30.064 118.723 28.9603 120.31 27.1569C120.584 26.8828 120.88 26.8539 121.198 27.0703L122.042 27.5897C122.215 27.6907 122.337 27.8494 122.41 28.0658C122.496 28.2678 122.503 28.4337 122.431 28.5636C121.883 29.6312 120.844 30.771 119.315 31.9829C117.8 33.1803 116.581 33.6853 115.658 33.4977C113.566 32.9928 112.339 31.8963 111.979 30.2083C111.704 28.8665 111.755 27.0703 112.13 24.8197C112.52 22.569 113.234 20.2462 114.272 17.8512C115.787 14.3454 117.54 12.1307 119.531 11.2074C121.104 10.4716 122.539 10.3922 123.838 10.9693C125.151 11.5464 125.807 12.982 125.807 15.2759C125.807 16.6032 125.483 17.9089 124.833 19.193C123.665 21.4869 121.602 23.4995 118.644 25.2308C117.49 25.9089 116.3 26.4716 115.073 26.9188ZM134.506 10.2119C134.506 10.2119 134.73 10.2119 135.177 10.2119C136.173 10.2119 137.096 10.5942 137.947 11.3589C138.813 12.1235 139.513 13.0757 140.047 14.2155C140.148 14.4031 140.176 14.6483 140.133 14.9513C140.104 15.2543 139.974 15.4779 139.744 15.6222L138.423 16.3796C138.178 16.5672 137.926 16.6465 137.666 16.6177C137.406 16.5888 137.233 16.4878 137.147 16.3147C137.06 16.1416 136.916 15.817 136.714 15.3408C136.512 14.8647 136.339 14.5185 136.194 14.3021C136.065 14.0712 135.834 13.826 135.502 13.5663C135.184 13.2922 134.824 13.1335 134.42 13.0902C133.698 13.2344 133.006 13.725 132.342 14.5618C131.693 15.3986 131.368 16.5672 131.368 18.0676C131.368 18.7169 131.52 19.1713 131.823 19.431C132.126 19.6907 132.681 19.8999 133.489 20.0586L134.744 20.3183C136.548 20.7078 137.45 22.2011 137.45 24.798C137.45 26.3273 136.865 28.1019 135.697 30.1217C135.134 31.0739 134.377 31.8747 133.424 32.5239C132.487 33.1731 131.462 33.4977 130.351 33.4977H130.048C128.923 33.4977 127.913 33.1082 127.019 32.3291C126.138 31.5356 125.525 30.7349 125.179 29.927C124.818 29.1046 124.811 28.4914 125.157 28.0875L126.131 27.2867C126.449 26.9838 126.781 26.8539 127.127 26.8972C127.473 26.9261 127.704 27.1858 127.819 27.6763C127.949 28.1668 128.31 28.7511 128.901 29.4292C129.507 30.1073 130.063 30.468 130.568 30.5113C131.462 30.367 132.234 29.8476 132.883 28.9531C133.533 28.0442 133.857 27.0126 133.857 25.8584C133.857 24.6898 133.742 23.9396 133.511 23.6078C133.28 23.2759 132.79 23.0234 132.039 22.8503L131.065 22.6339C129.897 22.3598 129.074 21.8837 128.598 21.2056C128.137 20.5275 127.906 19.5969 127.906 18.4139C127.906 17.2164 128.216 15.9757 128.836 14.6916C129.457 13.4076 130.286 12.3399 131.325 11.4887C132.364 10.6375 133.424 10.2119 134.506 10.2119Z" fill="white"/>
</svg>
