<svg width="24" height="24" viewBox="0 0 24 24" fill="none" xmlns="http://www.w3.org/2000/svg">
<path d="M11.8003 10.9C9.53031 10.31 8.80031 9.7 8.80031 8.75C8.80031 7.66 9.81031 6.9 11.5003 6.9C13.2803 6.9 13.9403 7.75 14.0003 9H16.2103C16.1403 7.28 15.0903 5.7 13.0003 5.19V3H10.0003V5.16C8.06031 5.58 6.50031 6.84 6.50031 8.77C6.50031 11.08 8.41031 12.23 11.2003 12.9C13.7003 13.5 14.2003 14.38 14.2003 15.31C14.2003 16 13.7103 17.1 11.5003 17.1C9.44031 17.1 8.63031 16.18 8.52031 15H6.32031C6.44031 17.19 8.08031 18.42 10.0003 18.83V21H13.0003V18.85C14.9503 18.48 16.5003 17.35 16.5003 15.3C16.5003 12.46 14.0703 11.49 11.8003 10.9Z" fill="#DEDEDE"/>
</svg>
